<?xml version="1.0" encoding="UTF-8" standalone="no"?>
<svg
   xmlns:dc="http://purl.org/dc/elements/1.1/"
   xmlns:cc="http://creativecommons.org/ns#"
   xmlns:rdf="http://www.w3.org/1999/02/22-rdf-syntax-ns#"
   xmlns:svg="http://www.w3.org/2000/svg"
   xmlns="http://www.w3.org/2000/svg"
   xmlns:sodipodi="http://sodipodi.sourceforge.net/DTD/sodipodi-0.dtd"
   xmlns:inkscape="http://www.inkscape.org/namespaces/inkscape"
   viewBox="0 0 384 512"
   version="1.1"
   id="svg4"
   sodipodi:docname="calc.svg"
   inkscape:version="1.0.2 (e86c870879, 2021-01-15)">
  <metadata
     id="metadata10">
    <rdf:RDF>
      <cc:Work
         rdf:about="">
        <dc:format>image/svg+xml</dc:format>
        <dc:type
           rdf:resource="http://purl.org/dc/dcmitype/StillImage" />
      </cc:Work>
    </rdf:RDF>
  </metadata>
  <defs
     id="defs8" />
  <sodipodi:namedview
     pagecolor="#ffffff"
     bordercolor="#666666"
     borderopacity="1"
     objecttolerance="10"
     gridtolerance="10"
     guidetolerance="10"
     inkscape:pageopacity="0"
     inkscape:pageshadow="2"
     inkscape:window-width="1366"
     inkscape:window-height="745"
     id="namedview6"
     showgrid="false"
     inkscape:zoom="1.1289062"
     inkscape:cx="192"
     inkscape:cy="208.75663"
     inkscape:window-x="-8"
     inkscape:window-y="-8"
     inkscape:window-maximized="1"
     inkscape:current-layer="svg4"
     inkscape:document-rotation="0" />
  <!--! Font Awesome Pro 6.1.1 by @fontawesome - https://fontawesome.com License - https://fontawesome.com/license (Commercial License) Copyright 2022 Fonticons, Inc. -->
  <path
     d="M 336.88581,1.7716262 H 48.885814 c -25.62,0 -48.00000018,22.3799998 -48.00000018,47.9999998 V 465.77163 c 0,25.6 22.38000018,48 48.00000018,48 H 336.88581 c 25.62,0 48,-22.38 48,-48 V 49.771626 c 0,-25.62 -22.4,-47.9999998 -48,-47.9999998 z M 64.885813,209.77163 c 0,-8.8 7.2,-16 16.000001,-16 h 31.999996 c 8.80001,0 16.00001,7.2 16.00001,16 v 32 c 0,8.8 -7.2,16 -16.00001,16 H 80.885814 c -8.800001,0 -16.000001,-7.2 -16.000001,-16 z m 0,96 c 0,-8.8 7.2,-16 16.000001,-16 h 31.999996 c 8.80001,0 16.00001,7.2 16.00001,16 v 32 c 0,8.8 -7.2,16 -16.00001,16 H 80.885814 c -8.800001,0 -16.000001,-7.2 -16.000001,-16 z m 159.999997,128 c 0,8.801 -7.199,16 -16,16 H 80.885814 c -8.800001,0 -16.000001,-7.2 -16.000001,-16 v -32 c 0,-8.8 7.2,-16 16.000001,-16 H 208.88581 c 8.801,0 16,7.199 16,16 z m 0,-96 c 0,8.801 -7.199,16 -16,16 h -32 c -8.8,0 -15.99999,-7.2 -15.99999,-16 v -32 c 0,-8.8 7.19999,-16 15.99999,-16 h 32 c 8.8,0 16,7.2 16,16 z m 0,-96 c 0,8.8 -7.2,16 -16,16 h -32 c -8.8,0 -15.99999,-7.2 -15.99999,-16 v -32 c 0,-8.8 7.19999,-16 15.99999,-16 h 32 c 8.8,0 16,7.2 16,16 z m 96,192 c 0,8.801 -7.199,16 -16,16 h -32 c -8.799,0 -16,-7.199 -16,-16 v -32 c 0,-8.801 7.201,-16 16,-16 h 32 c 8.801,0 16,7.199 16,16 z m 0,-96 c 0,8.801 -7.199,16 -16,16 h -32 c -8.799,0 -16,-7.199 -16,-16 v -32 c 0,-8.8 7.2,-16 16,-16 h 32 c 8.8,0 16,7.2 16,16 z m 0,-96 c 0,8.8 -7.2,16 -16,16 h -32 c -8.8,0 -16,-7.2 -16,-16 v -32 c 0,-8.8 7.2,-16 16,-16 h 32 c 8.8,0 16,7.2 16,16 z m 0,-96 c 0,8.8 -7.2,16 -16,16 H 80.885814 c -8.800001,0 -16.000001,-7.2 -16.000001,-16 V 81.771624 c 0,-8.8 7.2,-16 16.000001,-16 H 304.88581 c 8.8,0 16,7.2 16,16 z"
     id="path2"
     style="fill:#00970b;fill-opacity:1" />
</svg>
