<?xml version="1.0" encoding="UTF-8" standalone="no"?>
<svg
   xmlns:dc="http://purl.org/dc/elements/1.1/"
   xmlns:cc="http://creativecommons.org/ns#"
   xmlns:rdf="http://www.w3.org/1999/02/22-rdf-syntax-ns#"
   xmlns:svg="http://www.w3.org/2000/svg"
   xmlns="http://www.w3.org/2000/svg"
   xmlns:sodipodi="http://sodipodi.sourceforge.net/DTD/sodipodi-0.dtd"
   xmlns:inkscape="http://www.inkscape.org/namespaces/inkscape"
   version="1.1"
   id="svg22"
   xml:space="preserve"
   width="713.53198"
   height="307.064"
   viewBox="0 0 713.53198 307.064"
   sodipodi:docname="logo.jpg.svg"
   inkscape:version="1.0.2 (e86c870879, 2021-01-15)"><metadata
     id="metadata28"><rdf:RDF><cc:Work
         rdf:about=""><dc:format>image/svg+xml</dc:format><dc:type
           rdf:resource="http://purl.org/dc/dcmitype/StillImage" /><dc:title></dc:title></cc:Work></rdf:RDF></metadata><defs
     id="defs26"><clipPath
       clipPathUnits="userSpaceOnUse"
       id="clipPath40"><path
         d="m 119,96 h 47 v 39 h -47 z"
         id="path38" /></clipPath><clipPath
       clipPathUnits="userSpaceOnUse"
       id="clipPath46"><path
         d="m 158.785,96.273 -0.055,31.375 h -23.425 c -2.508,0 -4.645,-0.882 -6.414,-2.648 -1.766,-1.766 -2.649,-3.902 -2.649,-6.414 v -0.793 c 0,-1.91 0.742,-3.941 2.227,-6.098 l -5.035,-4.293 c -2.618,3.254 -3.922,6.715 -3.922,10.391 0,4.91 1.59,8.937 4.769,12.082 3.039,3.004 6.711,4.508 11.024,4.508 h 25.652 c 1.273,0 2.375,-0.461 3.313,-1.379 0.937,-0.918 1.406,-2.016 1.406,-3.285 l -0.055,-33.446 z m -19.055,11.844 c -1.289,1.293 -1.933,2.836 -1.933,4.641 v 1.43 h -0.742 v 4.292 h 12.562 v -4.292 h -7.527 v -1.43 c 0,-0.637 0.226,-1.184 0.687,-1.645 0.461,-0.457 1.008,-0.687 1.645,-0.687 0.777,0 1.519,0.496 2.226,1.48 L 150.516,110 c -1.766,-2.543 -3.797,-3.816 -6.094,-3.816 -1.836,0 -3.402,0.644 -4.692,1.933"
         id="path44" /></clipPath><clipPath
       clipPathUnits="userSpaceOnUse"
       id="clipPath54"><path
         d="M 0,0 H 536 V 231 H 0 Z"
         id="path52" /></clipPath><clipPath
       clipPathUnits="userSpaceOnUse"
       id="clipPath70"><path
         d="m 164,112 h 20 v 40 h -20 z"
         id="path68" /></clipPath><clipPath
       clipPathUnits="userSpaceOnUse"
       id="clipPath76"><path
         d="m 177.016,112.016 v 24.007 c 0,2.543 -0.891,4.707 -2.676,6.493 -1.785,1.785 -3.949,2.675 -6.492,2.675 h -3.446 v 6.786 h 3.446 c 4.379,0 8.136,-1.563 11.261,-4.692 3.129,-3.125 4.692,-6.879 4.692,-11.262 v -24.007 z"
         id="path74" /></clipPath><clipPath
       clipPathUnits="userSpaceOnUse"
       id="clipPath84"><path
         d="M 0,0 H 536 V 231 H 0 Z"
         id="path82" /></clipPath><clipPath
       clipPathUnits="userSpaceOnUse"
       id="clipPath100"><path
         d="m 188,96 h 13 v 39 h -13 z"
         id="path98" /></clipPath><clipPath
       clipPathUnits="userSpaceOnUse"
       id="clipPath106"><path
         d="m 188.41,96.273 -0.055,33.442 c 0,1.273 0.473,2.371 1.415,3.289 0.937,0.918 2.046,1.375 3.328,1.375 h 7.078 l 0.054,-6.781 h -4.898 l -0.055,-31.325 z"
         id="path104" /></clipPath><clipPath
       clipPathUnits="userSpaceOnUse"
       id="clipPath114"><path
         d="M 0,0 H 536 V 231 H 0 Z"
         id="path112" /></clipPath><clipPath
       clipPathUnits="userSpaceOnUse"
       id="clipPath130"><path
         d="m 200.176,127.598 h 12.25 v 6.781 h -12.25 z"
         id="path128" /></clipPath><clipPath
       clipPathUnits="userSpaceOnUse"
       id="clipPath138"><path
         d="M 0,0 H 536 V 231 H 0 Z"
         id="path136" /></clipPath><clipPath
       clipPathUnits="userSpaceOnUse"
       id="clipPath154"><path
         d="m 212,87 h 53 v 48 h -53 z"
         id="path152" /></clipPath><clipPath
       clipPathUnits="userSpaceOnUse"
       id="clipPath160"><path
         d="m 236.223,88.723 c -0.778,0.793 -1.168,1.738 -1.168,2.836 0,1.093 0.39,2.031 1.168,2.808 0.773,0.778 1.73,1.164 2.859,1.164 1.098,0 2.031,-0.386 2.809,-1.164 0.777,-0.777 1.168,-1.715 1.168,-2.808 0,-1.098 -0.391,-2.043 -1.168,-2.836 -0.778,-0.797 -1.711,-1.196 -2.809,-1.196 -1.129,0 -2.086,0.399 -2.859,1.196 m 4.742,9.062 c -0.762,0.758 -1.141,1.688 -1.141,2.781 0,1.063 0.379,1.981 1.141,2.754 0.758,0.782 1.687,1.168 2.781,1.168 1.063,0 1.969,-0.386 2.731,-1.168 0.757,-0.773 1.14,-1.691 1.14,-2.754 0,-1.093 -0.383,-2.023 -1.14,-2.781 -0.762,-0.762 -1.668,-1.14 -2.731,-1.14 -1.094,0 -2.023,0.378 -2.781,1.14 m -8.957,0 c -0.762,0.758 -1.141,1.688 -1.141,2.781 0,1.063 0.379,1.981 1.141,2.754 0.758,0.782 1.668,1.168 2.73,1.168 1.094,0 2.02,-0.386 2.782,-1.168 0.757,-0.773 1.136,-1.691 1.136,-2.754 0,-1.093 -0.379,-2.023 -1.136,-2.781 -0.762,-0.762 -1.688,-1.14 -2.782,-1.14 -1.062,0 -1.972,0.378 -2.73,1.14 m 19.055,9.301 v 16.379 c 0,1.164 -0.407,2.152 -1.219,2.965 -0.817,0.812 -1.805,1.218 -2.969,1.218 h -4.508 v -20.562 h -6.676 v 14.309 c 0,1.734 -0.609,3.207 -1.828,4.425 -1.218,1.219 -2.695,1.828 -4.425,1.828 h -3.872 v -20.562 h -6.726 v 20.512 h -6.414 v 6.785 h 15.316 c 3.27,0 5.918,-0.895 7.949,-2.68 v 2.68 h 28.723 v -6.785 h -7.363 c 0.492,-0.989 0.742,-2.368 0.742,-4.133 v -16.379 z m -14.895,24.168 v 0"
         id="path158" /></clipPath><clipPath
       clipPathUnits="userSpaceOnUse"
       id="clipPath168"><path
         d="M 0,0 H 536 V 231 H 0 Z"
         id="path166" /></clipPath><clipPath
       clipPathUnits="userSpaceOnUse"
       id="clipPath184"><path
         d="m 264.414,127.598 h 18.016 v 6.785 h -18.016 z"
         id="path182" /></clipPath><clipPath
       clipPathUnits="userSpaceOnUse"
       id="clipPath192"><path
         d="M 0,0 H 536 V 231 H 0 Z"
         id="path190" /></clipPath><clipPath
       clipPathUnits="userSpaceOnUse"
       id="clipPath208"><path
         d="m 282,96 h 21 v 39 h -21 z"
         id="path206" /></clipPath><clipPath
       clipPathUnits="userSpaceOnUse"
       id="clipPath214"><path
         d="m 293.539,97.785 c -0.687,0.758 -1.031,1.688 -1.031,2.781 0,1.063 0.344,1.981 1.031,2.754 0.688,0.782 1.527,1.168 2.52,1.168 0.961,0 1.781,-0.386 2.472,-1.168 0.688,-0.773 1.032,-1.691 1.032,-2.754 0,-1.093 -0.344,-2.023 -1.032,-2.781 -0.691,-0.762 -1.511,-1.14 -2.472,-1.14 -0.993,0 -1.832,0.378 -2.52,1.14 m -8.109,0 c -0.688,0.758 -1.032,1.688 -1.032,2.781 0,1.063 0.344,1.981 1.032,2.754 0.687,0.782 1.511,1.168 2.472,1.168 0.993,0 1.828,-0.386 2.52,-1.168 0.683,-0.773 1.031,-1.691 1.031,-2.754 0,-1.093 -0.348,-2.023 -1.031,-2.781 -0.692,-0.762 -1.527,-1.14 -2.52,-1.14 -0.961,0 -1.785,0.378 -2.472,1.14 m 3.574,10.309 v 19.504 h -6.574 v 6.785 h 19.769 v -6.785 h -7.051 v -19.504 z"
         id="path212" /></clipPath><clipPath
       clipPathUnits="userSpaceOnUse"
       id="clipPath222"><path
         d="M 0,0 H 536 V 231 H 0 Z"
         id="path220" /></clipPath><clipPath
       clipPathUnits="userSpaceOnUse"
       id="clipPath238"><path
         d="m 302.199,127.598 h 14.469 v 6.785 h -14.469 z"
         id="path236" /></clipPath><clipPath
       clipPathUnits="userSpaceOnUse"
       id="clipPath246"><path
         d="M 0,0 H 536 V 231 H 0 Z"
         id="path244" /></clipPath><clipPath
       clipPathUnits="userSpaceOnUse"
       id="clipPath262"><path
         d="m 316,107 h 53 v 28 h -53 z"
         id="path260" /></clipPath><clipPath
       clipPathUnits="userSpaceOnUse"
       id="clipPath268"><path
         d="m 355.305,107.086 v 16.379 c 0,1.164 -0.407,2.152 -1.219,2.965 -0.813,0.812 -1.801,1.218 -2.969,1.218 h -4.504 v -20.562 h -6.679 v 14.309 c 0,1.734 -0.61,3.207 -1.829,4.425 -1.218,1.219 -2.695,1.828 -4.421,1.828 h -3.871 v -20.562 h -6.731 v 20.512 h -6.414 v 6.785 h 15.316 c 3.274,0 5.922,-0.895 7.95,-2.68 v 2.68 h 28.726 v -6.785 h -7.363 c 0.492,-0.989 0.738,-2.368 0.738,-4.133 v -16.379 z m -14.891,24.168 v 0"
         id="path266" /></clipPath><clipPath
       clipPathUnits="userSpaceOnUse"
       id="clipPath276"><path
         d="M 0,0 H 536 V 231 H 0 Z"
         id="path274" /></clipPath><clipPath
       clipPathUnits="userSpaceOnUse"
       id="clipPath292"><path
         d="m 368,106 h 34 v 29 h -34 z"
         id="path290" /></clipPath><clipPath
       clipPathUnits="userSpaceOnUse"
       id="clipPath298"><path
         d="m 386.785,106.449 c -3.922,0.141 -7.215,1.555 -9.883,4.242 -2.668,2.684 -4.004,5.934 -4.004,9.75 0,3.145 0.532,5.532 1.594,7.157 h -5.887 l 0.055,6.785 h 21.942 c 0.32,0 0.761,-0.074 1.328,-0.215 6.254,-2.117 9.379,-6.625 9.379,-13.516 0,-3.957 -1.336,-7.277 -4,-9.961 -2.672,-2.687 -5.614,-4.101 -8.829,-4.242 z m -5.035,19.082 c -1.449,-1.414 -2.172,-3.109 -2.172,-5.09 0,-1.695 0.777,-3.304 2.332,-4.824 1.555,-1.515 3.285,-2.277 5.195,-2.277 1.907,0 3.637,0.762 5.192,2.277 1.555,1.52 2.332,3.129 2.332,4.824 0,1.981 -0.723,3.676 -2.172,5.09 -1.203,1.199 -2.949,1.891 -5.246,2.067 -2.477,-0.176 -4.293,-0.868 -5.461,-2.067"
         id="path296" /></clipPath><clipPath
       clipPathUnits="userSpaceOnUse"
       id="clipPath306"><path
         d="M 0,0 H 536 V 231 H 0 Z"
         id="path304" /></clipPath></defs><sodipodi:namedview
     pagecolor="#ffffff"
     bordercolor="#666666"
     borderopacity="1"
     objecttolerance="10"
     gridtolerance="10"
     guidetolerance="10"
     inkscape:pageopacity="0"
     inkscape:pageshadow="2"
     inkscape:window-width="1366"
     inkscape:window-height="745"
     id="namedview24"
     showgrid="false"
     inkscape:zoom="1.5388238"
     inkscape:cx="356.76599"
     inkscape:cy="153.532"
     inkscape:window-x="-8"
     inkscape:window-y="-8"
     inkscape:window-maximized="1"
     inkscape:current-layer="g30" /><g
     id="g30"
     inkscape:groupmode="layer"
     inkscape:label="Mustashark-logo"
     transform="matrix(1.3333333,0,0,1.3333333,0,1.2343267e-5)"><g
       id="g32" /><g
       id="g34"
       style="fill:#00d600;fill-opacity:1"><g
         id="g36"
         clip-path="url(#clipPath40)"
         style="fill:#00d600;fill-opacity:1"><g
           id="g42"
           clip-path="url(#clipPath46)"
           style="fill:#00d600;fill-opacity:1"><g
             id="g48"
             style="fill:#00d600;fill-opacity:1"><g
               id="g50"
               style="fill:#00d600;fill-opacity:1" /><g
               id="g62"
               style="fill:#00d600;fill-opacity:1"><g
                 clip-path="url(#clipPath54)"
                 id="g60"
                 style="fill:#00d600;fill-opacity:1"><g
                   id="g58"
                   style="fill:#00d600;fill-opacity:1"><path
                     d="m 158.785,96.273 -0.055,31.375 h -23.425 c -2.508,0 -4.645,-0.882 -6.414,-2.648 -1.766,-1.766 -2.649,-3.902 -2.649,-6.414 v -0.793 c 0,-1.91 0.742,-3.941 2.227,-6.098 l -5.035,-4.293 c -2.618,3.254 -3.922,6.715 -3.922,10.391 0,4.91 1.59,8.937 4.769,12.082 3.039,3.004 6.711,4.508 11.024,4.508 h 25.652 c 1.273,0 2.375,-0.461 3.313,-1.379 0.937,-0.918 1.406,-2.016 1.406,-3.285 l -0.055,-33.446 z m -19.055,11.844 c -1.289,1.293 -1.933,2.836 -1.933,4.641 v 1.43 h -0.742 v 4.292 h 12.562 v -4.292 h -7.527 v -1.43 c 0,-0.637 0.226,-1.184 0.687,-1.645 0.461,-0.457 1.008,-0.687 1.645,-0.687 0.777,0 1.519,0.496 2.226,1.48 L 150.516,110 c -1.766,-2.543 -3.797,-3.816 -6.094,-3.816 -1.836,0 -3.402,0.644 -4.692,1.933"
                     style="fill:#00d600;fill-opacity:1;fill-rule:nonzero;stroke:none"
                     id="path56" /></g></g></g></g></g></g></g><g
       id="g64"
       style="fill:#00d600;fill-opacity:1"><g
         id="g66"
         clip-path="url(#clipPath70)"
         style="fill:#00d600;fill-opacity:1"><g
           id="g72"
           clip-path="url(#clipPath76)"
           style="fill:#00d600;fill-opacity:1"><g
             id="g78"
             style="fill:#00d600;fill-opacity:1"><g
               id="g80"
               style="fill:#00d600;fill-opacity:1" /><g
               id="g92"
               style="fill:#00d600;fill-opacity:1"><g
                 clip-path="url(#clipPath84)"
                 id="g90"
                 style="fill:#00d600;fill-opacity:1"><g
                   id="g88"
                   style="fill:#00d600;fill-opacity:1"><path
                     d="m 177.016,112.016 v 24.007 c 0,2.543 -0.891,4.707 -2.676,6.493 -1.785,1.785 -3.949,2.675 -6.492,2.675 h -3.446 v 6.786 h 3.446 c 4.379,0 8.136,-1.563 11.261,-4.692 3.129,-3.125 4.692,-6.879 4.692,-11.262 v -24.007 z"
                     style="fill:#00d600;fill-opacity:1;fill-rule:nonzero;stroke:none"
                     id="path86" /></g></g></g></g></g></g></g><g
       id="g94"
       style="fill:#00d600;fill-opacity:1"><g
         id="g96"
         clip-path="url(#clipPath100)"
         style="fill:#00d600;fill-opacity:1"><g
           id="g102"
           clip-path="url(#clipPath106)"
           style="fill:#00d600;fill-opacity:1"><g
             id="g108"
             style="fill:#00d600;fill-opacity:1"><g
               id="g110"
               style="fill:#00d600;fill-opacity:1" /><g
               id="g122"
               style="fill:#00d600;fill-opacity:1"><g
                 clip-path="url(#clipPath114)"
                 id="g120"
                 style="fill:#00d600;fill-opacity:1"><g
                   id="g118"
                   style="fill:#00d600;fill-opacity:1"><path
                     d="m 188.41,96.273 -0.055,33.442 c 0,1.273 0.473,2.371 1.415,3.289 0.937,0.918 2.046,1.375 3.328,1.375 h 7.078 l 0.054,-6.781 h -4.898 l -0.055,-31.325 z"
                     style="fill:#00d600;fill-opacity:1;fill-rule:nonzero;stroke:none"
                     id="path116" /></g></g></g></g></g></g></g><g
       id="g124"
       style="fill:#00d600;fill-opacity:1"><g
         id="g126"
         clip-path="url(#clipPath130)"
         style="fill:#00d600;fill-opacity:1"><g
           id="g132"
           style="fill:#00d600;fill-opacity:1"><g
             id="g134"
             style="fill:#00d600;fill-opacity:1" /><g
             id="g146"
             style="fill:#00d600;fill-opacity:1"><g
               clip-path="url(#clipPath138)"
               id="g144"
               style="fill:#00d600;fill-opacity:1"><g
                 id="g142"
                 style="fill:#00d600;fill-opacity:1"><path
                   d="m 200.176,127.598 h 12.25 v 6.781 h -12.25 z"
                   style="fill:#00d600;fill-opacity:1;fill-rule:nonzero;stroke:none"
                   id="path140" /></g></g></g></g></g></g><g
       id="g148"
       style="fill:#00d600;fill-opacity:1"><g
         id="g150"
         clip-path="url(#clipPath154)"
         style="fill:#00d600;fill-opacity:1"><g
           id="g156"
           clip-path="url(#clipPath160)"
           style="fill:#00d600;fill-opacity:1"><g
             id="g162"
             style="fill:#00d600;fill-opacity:1"><g
               id="g164"
               style="fill:#00d600;fill-opacity:1" /><g
               id="g176"
               style="fill:#00d600;fill-opacity:1"><g
                 clip-path="url(#clipPath168)"
                 id="g174"
                 style="fill:#00d600;fill-opacity:1"><g
                   id="g172"
                   style="fill:#00d600;fill-opacity:1"><path
                     d="m 236.223,88.723 c -0.778,0.793 -1.168,1.738 -1.168,2.836 0,1.093 0.39,2.031 1.168,2.808 0.773,0.778 1.73,1.164 2.859,1.164 1.098,0 2.031,-0.386 2.809,-1.164 0.777,-0.777 1.168,-1.715 1.168,-2.808 0,-1.098 -0.391,-2.043 -1.168,-2.836 -0.778,-0.797 -1.711,-1.196 -2.809,-1.196 -1.129,0 -2.086,0.399 -2.859,1.196 m 4.742,9.062 c -0.762,0.758 -1.141,1.688 -1.141,2.781 0,1.063 0.379,1.981 1.141,2.754 0.758,0.782 1.687,1.168 2.781,1.168 1.063,0 1.969,-0.386 2.731,-1.168 0.757,-0.773 1.14,-1.691 1.14,-2.754 0,-1.093 -0.383,-2.023 -1.14,-2.781 -0.762,-0.762 -1.668,-1.14 -2.731,-1.14 -1.094,0 -2.023,0.378 -2.781,1.14 m -8.957,0 c -0.762,0.758 -1.141,1.688 -1.141,2.781 0,1.063 0.379,1.981 1.141,2.754 0.758,0.782 1.668,1.168 2.73,1.168 1.094,0 2.02,-0.386 2.782,-1.168 0.757,-0.773 1.136,-1.691 1.136,-2.754 0,-1.093 -0.379,-2.023 -1.136,-2.781 -0.762,-0.762 -1.688,-1.14 -2.782,-1.14 -1.062,0 -1.972,0.378 -2.73,1.14 m 19.055,9.301 v 16.379 c 0,1.164 -0.407,2.152 -1.219,2.965 -0.817,0.812 -1.805,1.218 -2.969,1.218 h -4.508 v -20.562 h -6.676 v 14.309 c 0,1.734 -0.609,3.207 -1.828,4.425 -1.218,1.219 -2.695,1.828 -4.425,1.828 h -3.872 v -20.562 h -6.726 v 20.512 h -6.414 v 6.785 h 15.316 c 3.27,0 5.918,-0.895 7.949,-2.68 v 2.68 h 28.723 v -6.785 h -7.363 c 0.492,-0.989 0.742,-2.368 0.742,-4.133 v -16.379 z m -14.895,24.168 v 0"
                     style="fill:#00d600;fill-opacity:1;fill-rule:nonzero;stroke:none"
                     id="path170" /></g></g></g></g></g></g></g><g
       id="g178"
       style="fill:#00d600;fill-opacity:1"><g
         id="g180"
         clip-path="url(#clipPath184)"
         style="fill:#00d600;fill-opacity:1"><g
           id="g186"
           style="fill:#00d600;fill-opacity:1"><g
             id="g188"
             style="fill:#00d600;fill-opacity:1" /><g
             id="g200"
             style="fill:#00d600;fill-opacity:1"><g
               clip-path="url(#clipPath192)"
               id="g198"
               style="fill:#00d600;fill-opacity:1"><g
                 id="g196"
                 style="fill:#00d600;fill-opacity:1"><path
                   d="m 264.414,127.598 h 18.016 v 6.785 h -18.016 z"
                   style="fill:#00d600;fill-opacity:1;fill-rule:nonzero;stroke:none"
                   id="path194" /></g></g></g></g></g></g><g
       id="g202"
       style="fill:#00d600;fill-opacity:1"><g
         id="g204"
         clip-path="url(#clipPath208)"
         style="fill:#00d600;fill-opacity:1"><g
           id="g210"
           clip-path="url(#clipPath214)"
           style="fill:#00d600;fill-opacity:1"><g
             id="g216"
             style="fill:#00d600;fill-opacity:1"><g
               id="g218"
               style="fill:#00d600;fill-opacity:1" /><g
               id="g230"
               style="fill:#00d600;fill-opacity:1"><g
                 clip-path="url(#clipPath222)"
                 id="g228"
                 style="fill:#00d600;fill-opacity:1"><g
                   id="g226"
                   style="fill:#00d600;fill-opacity:1"><path
                     d="m 293.539,97.785 c -0.687,0.758 -1.031,1.688 -1.031,2.781 0,1.063 0.344,1.981 1.031,2.754 0.688,0.782 1.527,1.168 2.52,1.168 0.961,0 1.781,-0.386 2.472,-1.168 0.688,-0.773 1.032,-1.691 1.032,-2.754 0,-1.093 -0.344,-2.023 -1.032,-2.781 -0.691,-0.762 -1.511,-1.14 -2.472,-1.14 -0.993,0 -1.832,0.378 -2.52,1.14 m -8.109,0 c -0.688,0.758 -1.032,1.688 -1.032,2.781 0,1.063 0.344,1.981 1.032,2.754 0.687,0.782 1.511,1.168 2.472,1.168 0.993,0 1.828,-0.386 2.52,-1.168 0.683,-0.773 1.031,-1.691 1.031,-2.754 0,-1.093 -0.348,-2.023 -1.031,-2.781 -0.692,-0.762 -1.527,-1.14 -2.52,-1.14 -0.961,0 -1.785,0.378 -2.472,1.14 m 3.574,10.309 v 19.504 h -6.574 v 6.785 h 19.769 v -6.785 h -7.051 v -19.504 z"
                     style="fill:#00d600;fill-opacity:1;fill-rule:nonzero;stroke:none"
                     id="path224" /></g></g></g></g></g></g></g><g
       id="g232"
       style="fill:#00d600;fill-opacity:1"><g
         id="g234"
         clip-path="url(#clipPath238)"
         style="fill:#00d600;fill-opacity:1"><g
           id="g240"
           style="fill:#00d600;fill-opacity:1"><g
             id="g242"
             style="fill:#00d600;fill-opacity:1" /><g
             id="g254"
             style="fill:#00d600;fill-opacity:1"><g
               clip-path="url(#clipPath246)"
               id="g252"
               style="fill:#00d600;fill-opacity:1"><g
                 id="g250"
                 style="fill:#00d600;fill-opacity:1"><path
                   d="m 302.199,127.598 h 14.469 v 6.785 h -14.469 z"
                   style="fill:#00d600;fill-opacity:1;fill-rule:nonzero;stroke:none"
                   id="path248" /></g></g></g></g></g></g><g
       id="g256"
       style="fill:#00d600;fill-opacity:1"><g
         id="g258"
         clip-path="url(#clipPath262)"
         style="fill:#00d600;fill-opacity:1"><g
           id="g264"
           clip-path="url(#clipPath268)"
           style="fill:#00d600;fill-opacity:1"><g
             id="g270"
             style="fill:#00d600;fill-opacity:1"><g
               id="g272"
               style="fill:#00d600;fill-opacity:1" /><g
               id="g284"
               style="fill:#00d600;fill-opacity:1"><g
                 clip-path="url(#clipPath276)"
                 id="g282"
                 style="fill:#00d600;fill-opacity:1"><g
                   id="g280"
                   style="fill:#00d600;fill-opacity:1"><path
                     d="m 355.305,107.086 v 16.379 c 0,1.164 -0.407,2.152 -1.219,2.965 -0.813,0.812 -1.801,1.218 -2.969,1.218 h -4.504 v -20.562 h -6.679 v 14.309 c 0,1.734 -0.61,3.207 -1.829,4.425 -1.218,1.219 -2.695,1.828 -4.421,1.828 h -3.871 v -20.562 h -6.731 v 20.512 h -6.414 v 6.785 h 15.316 c 3.274,0 5.922,-0.895 7.95,-2.68 v 2.68 h 28.726 v -6.785 h -7.363 c 0.492,-0.989 0.738,-2.368 0.738,-4.133 v -16.379 z m -14.891,24.168 v 0"
                     style="fill:#00d600;fill-opacity:1;fill-rule:nonzero;stroke:none"
                     id="path278" /></g></g></g></g></g></g></g><g
       id="g286"
       style="fill:#00d600;fill-opacity:1"><g
         id="g288"
         clip-path="url(#clipPath292)"
         style="fill:#00d600;fill-opacity:1"><g
           id="g294"
           clip-path="url(#clipPath298)"
           style="fill:#00d600;fill-opacity:1"><g
             id="g300"
             style="fill:#00d600;fill-opacity:1"><g
               id="g302"
               style="fill:#00d600;fill-opacity:1" /><g
               id="g314"
               style="fill:#00d600;fill-opacity:1"><g
                 clip-path="url(#clipPath306)"
                 id="g312"
                 style="fill:#00d600;fill-opacity:1"><g
                   id="g310"
                   style="fill:#00d600;fill-opacity:1"><path
                     d="m 386.785,106.449 c -3.922,0.141 -7.215,1.555 -9.883,4.242 -2.668,2.684 -4.004,5.934 -4.004,9.75 0,3.145 0.532,5.532 1.594,7.157 h -5.887 l 0.055,6.785 h 21.942 c 0.32,0 0.761,-0.074 1.328,-0.215 6.254,-2.117 9.379,-6.625 9.379,-13.516 0,-3.957 -1.336,-7.277 -4,-9.961 -2.672,-2.687 -5.614,-4.101 -8.829,-4.242 z m -5.035,19.082 c -1.449,-1.414 -2.172,-3.109 -2.172,-5.09 0,-1.695 0.777,-3.304 2.332,-4.824 1.555,-1.515 3.285,-2.277 5.195,-2.277 1.907,0 3.637,0.762 5.192,2.277 1.555,1.52 2.332,3.129 2.332,4.824 0,1.981 -0.723,3.676 -2.172,5.09 -1.203,1.199 -2.949,1.891 -5.246,2.067 -2.477,-0.176 -4.293,-0.868 -5.461,-2.067"
                     style="fill:#00d600;fill-opacity:1;fill-rule:nonzero;stroke:none"
                     id="path308" /></g></g></g></g></g></g></g></g></svg>
