<?xml version="1.0" encoding="UTF-8" standalone="no"?>
<svg
   xmlns:dc="http://purl.org/dc/elements/1.1/"
   xmlns:cc="http://creativecommons.org/ns#"
   xmlns:rdf="http://www.w3.org/1999/02/22-rdf-syntax-ns#"
   xmlns:svg="http://www.w3.org/2000/svg"
   xmlns="http://www.w3.org/2000/svg"
   xmlns:sodipodi="http://sodipodi.sourceforge.net/DTD/sodipodi-0.dtd"
   xmlns:inkscape="http://www.inkscape.org/namespaces/inkscape"
   viewBox="0 0 640 512"
   version="1.1"
   id="svg4"
   sodipodi:docname="work.svg"
   inkscape:version="1.0.2 (e86c870879, 2021-01-15)">
  <metadata
     id="metadata10">
    <rdf:RDF>
      <cc:Work
         rdf:about="">
        <dc:format>image/svg+xml</dc:format>
        <dc:type
           rdf:resource="http://purl.org/dc/dcmitype/StillImage" />
      </cc:Work>
    </rdf:RDF>
  </metadata>
  <defs
     id="defs8" />
  <sodipodi:namedview
     pagecolor="#ffffff"
     bordercolor="#666666"
     borderopacity="1"
     objecttolerance="10"
     gridtolerance="10"
     guidetolerance="10"
     inkscape:pageopacity="0"
     inkscape:pageshadow="2"
     inkscape:window-width="1366"
     inkscape:window-height="745"
     id="namedview6"
     showgrid="false"
     inkscape:zoom="1.1289062"
     inkscape:cx="149.48096"
     inkscape:cy="256"
     inkscape:window-x="-8"
     inkscape:window-y="-8"
     inkscape:window-maximized="1"
     inkscape:current-layer="svg4"
     inkscape:document-rotation="0" />
  <!--! Font Awesome Pro 6.1.1 by @fontawesome - https://fontawesome.com License - https://fontawesome.com/license (Commercial License) Copyright 2022 Fonticons, Inc. -->
  <path
     d="M 105.77163,80.941176 H 57.771626 c -13.25,0 -24,10.8 -24,24.000004 v 104 c -17.67,0 -31.9999996,14.3 -31.9999996,32 0,17.67 14.3299996,32 31.0999996,32 l 0.9,104 c 0,13.3 10.75,24 24,24 h 48.000004 c 13.3,0 24,-10.7 24,-24 v -272 c 0,-13.200004 -10.7,-24.000004 -24,-24.000004 z m 352,-64 h -48 c -13.2,0 -24,10.75 -24,24 V 208.94118 h -128 V 40.941176 c 0,-13.25 -10.7,-24 -24,-24 h -48 c -13.2,0 -24,10.75 -24,24 V 440.94118 c 0,13.3 10.8,24 24,24 h 48 c 13.3,0 24,-10.7 24,-24 v -168 h 128 v 168 c 0,13.25 10.75,24 24,24 h 48 c 13.25,0 24,-10.75 24,-24 V 40.941176 c 0,-13.25 -10.7,-24 -24,-24 z m 152,192.000004 v -104 c 0,-13.200004 -10.7,-24.000004 -24,-24.000004 h -48 c -13.2,0 -24,10.8 -24,24.000004 v 272 c 0,13.25 10.75,24 24,24 h 48 c 13.25,0 24,-10.75 24,-24 v -104 c 17.67,0 32,-14.33 32,-32 0,-17.7 -14.3,-32 -32,-32 z"
     id="path2"
     style="fill:#00970b;fill-opacity:1" />
</svg>
